<mxfile host="app.diagrams.net" modified="2022-02-15T12:40:59.126Z" agent="5.0 (Macintosh; Intel Mac OS X 10_15_7) AppleWebKit/537.36 (KHTML, like Gecko) Chrome/97.0.4692.71 Safari/537.36" etag="py9pKfH-l6SAm56NSPWS" version="16.5.6" type="github" pages="4">
  <diagram id="p7Ff0zWDrnerY__srlPh" name="Registration">
    <mxGraphModel dx="1186" dy="739" grid="1" gridSize="10" guides="1" tooltips="1" connect="1" arrows="1" fold="1" page="1" pageScale="1" pageWidth="827" pageHeight="1169" math="0" shadow="0">
      <root>
        <mxCell id="0" />
        <mxCell id="nXb4mECqNkCN1c7yYPb4-7" value="Components" style="" parent="0" />
        <mxCell id="1" value="Registration" style="" parent="0" />
        <mxCell id="nXb4mECqNkCN1c7yYPb4-29" value="" style="group" parent="1" vertex="1" connectable="0">
          <mxGeometry x="414" y="110" width="200" height="260" as="geometry" />
        </mxCell>
        <mxCell id="nXb4mECqNkCN1c7yYPb4-10" value="" style="group" parent="nXb4mECqNkCN1c7yYPb4-29" vertex="1" connectable="0">
          <mxGeometry y="20" width="200" height="240" as="geometry" />
        </mxCell>
        <mxCell id="nXb4mECqNkCN1c7yYPb4-11" value="" style="rounded=0;whiteSpace=wrap;html=1;" parent="nXb4mECqNkCN1c7yYPb4-10" vertex="1">
          <mxGeometry width="200" height="240" as="geometry" />
        </mxCell>
        <mxCell id="nXb4mECqNkCN1c7yYPb4-12" value="" style="rounded=0;whiteSpace=wrap;html=1;" parent="nXb4mECqNkCN1c7yYPb4-10" vertex="1">
          <mxGeometry width="200" height="20" as="geometry" />
        </mxCell>
        <mxCell id="nXb4mECqNkCN1c7yYPb4-13" value="" style="rounded=0;whiteSpace=wrap;html=1;fillColor=#CCCCCC;strokeColor=#CCCCCC;" parent="nXb4mECqNkCN1c7yYPb4-10" vertex="1">
          <mxGeometry x="10" y="7" width="10" height="6" as="geometry" />
        </mxCell>
        <mxCell id="nXb4mECqNkCN1c7yYPb4-14" value="" style="rounded=0;whiteSpace=wrap;html=1;fillColor=#CCCCCC;strokeColor=#CCCCCC;" parent="nXb4mECqNkCN1c7yYPb4-10" vertex="1">
          <mxGeometry x="170" y="7" width="20" height="6" as="geometry" />
        </mxCell>
        <mxCell id="nXb4mECqNkCN1c7yYPb4-15" value="" style="rounded=0;whiteSpace=wrap;html=1;fillColor=#CCCCCC;strokeColor=#CCCCCC;" parent="nXb4mECqNkCN1c7yYPb4-10" vertex="1">
          <mxGeometry x="25" y="7" width="15" height="6" as="geometry" />
        </mxCell>
        <mxCell id="nXb4mECqNkCN1c7yYPb4-25" value="" style="rounded=0;whiteSpace=wrap;html=1;" parent="nXb4mECqNkCN1c7yYPb4-10" vertex="1">
          <mxGeometry x="45" y="50" width="110" height="80" as="geometry" />
        </mxCell>
        <mxCell id="nXb4mECqNkCN1c7yYPb4-16" value="/registration" style="text;html=1;strokeColor=none;fillColor=none;align=left;verticalAlign=middle;whiteSpace=wrap;rounded=0;fontSize=12;" parent="nXb4mECqNkCN1c7yYPb4-29" vertex="1">
          <mxGeometry width="200" height="20" as="geometry" />
        </mxCell>
        <mxCell id="nXb4mECqNkCN1c7yYPb4-26" value="password" style="rounded=0;whiteSpace=wrap;html=1;fontSize=9;align=left;spacingLeft=2;" parent="nXb4mECqNkCN1c7yYPb4-29" vertex="1">
          <mxGeometry x="55" y="90" width="91" height="10" as="geometry" />
        </mxCell>
        <mxCell id="nXb4mECqNkCN1c7yYPb4-27" value="country" style="rounded=0;whiteSpace=wrap;html=1;fontSize=9;align=left;spacingLeft=2;" parent="nXb4mECqNkCN1c7yYPb4-29" vertex="1">
          <mxGeometry x="55" y="110" width="91" height="10" as="geometry" />
        </mxCell>
        <mxCell id="nXb4mECqNkCN1c7yYPb4-28" value="ok" style="rounded=0;whiteSpace=wrap;html=1;fontSize=9;spacing=0;" parent="nXb4mECqNkCN1c7yYPb4-29" vertex="1">
          <mxGeometry x="85" y="130" width="31" height="10" as="geometry" />
        </mxCell>
        <mxCell id="nXb4mECqNkCN1c7yYPb4-48" style="edgeStyle=elbowEdgeStyle;rounded=0;orthogonalLoop=1;jettySize=auto;html=1;entryX=0.333;entryY=0;entryDx=0;entryDy=0;entryPerimeter=0;fontSize=9;fontColor=#2671BD;" parent="1" source="nXb4mECqNkCN1c7yYPb4-45" target="nXb4mECqNkCN1c7yYPb4-47" edge="1">
          <mxGeometry relative="1" as="geometry" />
        </mxCell>
        <mxCell id="nXb4mECqNkCN1c7yYPb4-45" value="Server" style="rounded=0;whiteSpace=wrap;html=1;fontSize=9;strokeColor=#CCCCCC;fillColor=#FFFFFF;" parent="1" vertex="1">
          <mxGeometry x="400" y="430" width="480" height="20" as="geometry" />
        </mxCell>
        <mxCell id="nXb4mECqNkCN1c7yYPb4-46" style="edgeStyle=elbowEdgeStyle;rounded=0;orthogonalLoop=1;jettySize=auto;html=1;entryX=0.238;entryY=-0.1;entryDx=0;entryDy=0;entryPerimeter=0;fontSize=9;" parent="1" source="nXb4mECqNkCN1c7yYPb4-11" target="nXb4mECqNkCN1c7yYPb4-45" edge="1">
          <mxGeometry relative="1" as="geometry" />
        </mxCell>
        <mxCell id="nXb4mECqNkCN1c7yYPb4-47" value="Email conformation&lt;br&gt;&lt;br&gt;Please follow the &lt;font color=&quot;#2671bd&quot;&gt;link&lt;/font&gt;." style="rounded=0;whiteSpace=wrap;html=1;fontSize=9;strokeColor=#CCCCCC;fillColor=#FFFFFF;align=left;verticalAlign=top;spacing=5;" parent="1" vertex="1">
          <mxGeometry x="590" y="520" width="120" height="60" as="geometry" />
        </mxCell>
        <mxCell id="nXb4mECqNkCN1c7yYPb4-49" value="" style="endArrow=classic;html=1;rounded=0;fontSize=9;fontColor=#2671BD;" parent="1" target="nXb4mECqNkCN1c7yYPb4-32" edge="1">
          <mxGeometry width="50" height="50" relative="1" as="geometry">
            <mxPoint x="679" y="551" as="sourcePoint" />
            <mxPoint x="710" y="380" as="targetPoint" />
          </mxGeometry>
        </mxCell>
        <mxCell id="nXb4mECqNkCN1c7yYPb4-50" value="" style="group" parent="1" vertex="1" connectable="0">
          <mxGeometry x="680" y="110" width="200" height="260" as="geometry" />
        </mxCell>
        <mxCell id="nXb4mECqNkCN1c7yYPb4-30" value="" style="group" parent="nXb4mECqNkCN1c7yYPb4-50" vertex="1" connectable="0">
          <mxGeometry width="200" height="260" as="geometry" />
        </mxCell>
        <mxCell id="nXb4mECqNkCN1c7yYPb4-31" value="" style="group" parent="nXb4mECqNkCN1c7yYPb4-30" vertex="1" connectable="0">
          <mxGeometry y="20" width="200" height="240" as="geometry" />
        </mxCell>
        <mxCell id="nXb4mECqNkCN1c7yYPb4-32" value="" style="rounded=0;whiteSpace=wrap;html=1;" parent="nXb4mECqNkCN1c7yYPb4-31" vertex="1">
          <mxGeometry width="200" height="240" as="geometry" />
        </mxCell>
        <mxCell id="nXb4mECqNkCN1c7yYPb4-33" value="" style="rounded=0;whiteSpace=wrap;html=1;" parent="nXb4mECqNkCN1c7yYPb4-31" vertex="1">
          <mxGeometry width="200" height="20" as="geometry" />
        </mxCell>
        <mxCell id="nXb4mECqNkCN1c7yYPb4-34" value="" style="rounded=0;whiteSpace=wrap;html=1;fillColor=#CCCCCC;strokeColor=#CCCCCC;" parent="nXb4mECqNkCN1c7yYPb4-31" vertex="1">
          <mxGeometry x="10" y="7" width="10" height="6" as="geometry" />
        </mxCell>
        <mxCell id="nXb4mECqNkCN1c7yYPb4-35" value="" style="rounded=0;whiteSpace=wrap;html=1;fillColor=#CCCCCC;strokeColor=#CCCCCC;" parent="nXb4mECqNkCN1c7yYPb4-31" vertex="1">
          <mxGeometry x="170" y="7" width="20" height="6" as="geometry" />
        </mxCell>
        <mxCell id="nXb4mECqNkCN1c7yYPb4-36" value="" style="rounded=0;whiteSpace=wrap;html=1;fillColor=#CCCCCC;strokeColor=#CCCCCC;" parent="nXb4mECqNkCN1c7yYPb4-31" vertex="1">
          <mxGeometry x="25" y="7" width="15" height="6" as="geometry" />
        </mxCell>
        <mxCell id="nXb4mECqNkCN1c7yYPb4-37" value="" style="rounded=0;whiteSpace=wrap;html=1;" parent="nXb4mECqNkCN1c7yYPb4-31" vertex="1">
          <mxGeometry x="45" y="50" width="110" height="120" as="geometry" />
        </mxCell>
        <mxCell id="nXb4mECqNkCN1c7yYPb4-44" value="I hereby confirm…" style="text;html=1;strokeColor=none;fillColor=none;align=left;verticalAlign=middle;whiteSpace=wrap;rounded=0;fontSize=9;" parent="nXb4mECqNkCN1c7yYPb4-31" vertex="1">
          <mxGeometry x="62" y="128" width="78" height="10" as="geometry" />
        </mxCell>
        <mxCell id="nXb4mECqNkCN1c7yYPb4-38" value="/registration/signup" style="text;html=1;strokeColor=none;fillColor=none;align=left;verticalAlign=middle;whiteSpace=wrap;rounded=0;fontSize=12;" parent="nXb4mECqNkCN1c7yYPb4-30" vertex="1">
          <mxGeometry width="200" height="20" as="geometry" />
        </mxCell>
        <mxCell id="nXb4mECqNkCN1c7yYPb4-39" value="password" style="rounded=0;whiteSpace=wrap;html=1;fontSize=9;align=left;spacingLeft=2;" parent="nXb4mECqNkCN1c7yYPb4-30" vertex="1">
          <mxGeometry x="55" y="90" width="91" height="10" as="geometry" />
        </mxCell>
        <mxCell id="nXb4mECqNkCN1c7yYPb4-40" value="confirm password" style="rounded=0;whiteSpace=wrap;html=1;fontSize=9;align=left;spacingLeft=2;" parent="nXb4mECqNkCN1c7yYPb4-30" vertex="1">
          <mxGeometry x="55" y="110" width="91" height="10" as="geometry" />
        </mxCell>
        <mxCell id="nXb4mECqNkCN1c7yYPb4-41" value="ok" style="rounded=0;whiteSpace=wrap;html=1;fontSize=9;spacing=0;" parent="nXb4mECqNkCN1c7yYPb4-30" vertex="1">
          <mxGeometry x="85" y="170" width="31" height="10" as="geometry" />
        </mxCell>
        <mxCell id="nXb4mECqNkCN1c7yYPb4-42" value="merchant name" style="rounded=0;whiteSpace=wrap;html=1;fontSize=9;align=left;spacingLeft=2;" parent="nXb4mECqNkCN1c7yYPb4-50" vertex="1">
          <mxGeometry x="55" y="130" width="91" height="10" as="geometry" />
        </mxCell>
        <mxCell id="nXb4mECqNkCN1c7yYPb4-43" value="" style="rounded=0;whiteSpace=wrap;html=1;fontSize=9;spacing=0;" parent="nXb4mECqNkCN1c7yYPb4-50" vertex="1">
          <mxGeometry x="55" y="150" width="5" height="5" as="geometry" />
        </mxCell>
        <mxCell id="OOlirPghA7_H0LJ8nzAa-1" value="" style="group" vertex="1" connectable="0" parent="1">
          <mxGeometry x="950" y="110" width="200" height="260" as="geometry" />
        </mxCell>
        <mxCell id="OOlirPghA7_H0LJ8nzAa-2" value="" style="group" vertex="1" connectable="0" parent="OOlirPghA7_H0LJ8nzAa-1">
          <mxGeometry width="200" height="260" as="geometry" />
        </mxCell>
        <mxCell id="OOlirPghA7_H0LJ8nzAa-3" value="" style="group" vertex="1" connectable="0" parent="OOlirPghA7_H0LJ8nzAa-2">
          <mxGeometry width="200" height="260" as="geometry" />
        </mxCell>
        <mxCell id="OOlirPghA7_H0LJ8nzAa-4" value="" style="group" vertex="1" connectable="0" parent="OOlirPghA7_H0LJ8nzAa-3">
          <mxGeometry y="20" width="200" height="240" as="geometry" />
        </mxCell>
        <mxCell id="OOlirPghA7_H0LJ8nzAa-5" value="" style="rounded=0;whiteSpace=wrap;html=1;" vertex="1" parent="OOlirPghA7_H0LJ8nzAa-4">
          <mxGeometry width="200" height="240" as="geometry" />
        </mxCell>
        <mxCell id="OOlirPghA7_H0LJ8nzAa-6" value="" style="rounded=0;whiteSpace=wrap;html=1;" vertex="1" parent="OOlirPghA7_H0LJ8nzAa-4">
          <mxGeometry width="200" height="20" as="geometry" />
        </mxCell>
        <mxCell id="OOlirPghA7_H0LJ8nzAa-7" value="" style="rounded=0;whiteSpace=wrap;html=1;fillColor=#CCCCCC;strokeColor=#CCCCCC;" vertex="1" parent="OOlirPghA7_H0LJ8nzAa-4">
          <mxGeometry x="10" y="7" width="10" height="6" as="geometry" />
        </mxCell>
        <mxCell id="OOlirPghA7_H0LJ8nzAa-8" value="" style="rounded=0;whiteSpace=wrap;html=1;fillColor=#CCCCCC;strokeColor=#CCCCCC;" vertex="1" parent="OOlirPghA7_H0LJ8nzAa-4">
          <mxGeometry x="170" y="7" width="20" height="6" as="geometry" />
        </mxCell>
        <mxCell id="OOlirPghA7_H0LJ8nzAa-9" value="" style="rounded=0;whiteSpace=wrap;html=1;fillColor=#CCCCCC;strokeColor=#CCCCCC;" vertex="1" parent="OOlirPghA7_H0LJ8nzAa-4">
          <mxGeometry x="25" y="7" width="15" height="6" as="geometry" />
        </mxCell>
        <mxCell id="OOlirPghA7_H0LJ8nzAa-10" value="" style="rounded=0;whiteSpace=wrap;html=1;fillColor=#CCCCCC;" vertex="1" parent="OOlirPghA7_H0LJ8nzAa-4">
          <mxGeometry y="20" width="40" height="220" as="geometry" />
        </mxCell>
        <mxCell id="OOlirPghA7_H0LJ8nzAa-11" value="/panel" style="text;html=1;strokeColor=none;fillColor=none;align=left;verticalAlign=middle;whiteSpace=wrap;rounded=0;fontSize=12;" vertex="1" parent="OOlirPghA7_H0LJ8nzAa-3">
          <mxGeometry width="200" height="20" as="geometry" />
        </mxCell>
        <mxCell id="OOlirPghA7_H0LJ8nzAa-12" value="" style="rounded=0;whiteSpace=wrap;html=1;" vertex="1" parent="OOlirPghA7_H0LJ8nzAa-1">
          <mxGeometry x="40" y="40" width="160" height="15" as="geometry" />
        </mxCell>
        <mxCell id="OOlirPghA7_H0LJ8nzAa-13" value="" style="rounded=0;whiteSpace=wrap;html=1;fillColor=#CCCCCC;strokeColor=#CCCCCC;" vertex="1" parent="OOlirPghA7_H0LJ8nzAa-1">
          <mxGeometry x="44" y="44" width="3" height="6" as="geometry" />
        </mxCell>
        <mxCell id="OOlirPghA7_H0LJ8nzAa-14" value="" style="rounded=0;whiteSpace=wrap;html=1;fillColor=#CCCCCC;strokeColor=#CCCCCC;" vertex="1" parent="OOlirPghA7_H0LJ8nzAa-1">
          <mxGeometry x="51" y="44" width="20" height="6" as="geometry" />
        </mxCell>
        <mxCell id="OOlirPghA7_H0LJ8nzAa-15" style="edgeStyle=elbowEdgeStyle;rounded=0;orthogonalLoop=1;jettySize=auto;elbow=vertical;html=1;" edge="1" parent="1" source="nXb4mECqNkCN1c7yYPb4-32" target="OOlirPghA7_H0LJ8nzAa-5">
          <mxGeometry relative="1" as="geometry" />
        </mxCell>
      </root>
    </mxGraphModel>
  </diagram>
  <diagram id="9IjZil99zR7rNWSkeCL1" name="Auth">
    <mxGraphModel dx="1318" dy="821" grid="1" gridSize="10" guides="1" tooltips="1" connect="1" arrows="1" fold="1" page="1" pageScale="1" pageWidth="827" pageHeight="1169" math="0" shadow="0">
      <root>
        <mxCell id="iW9iBrreQVlwl3mV8Ol9-0" />
        <mxCell id="iW9iBrreQVlwl3mV8Ol9-1" parent="iW9iBrreQVlwl3mV8Ol9-0" />
        <mxCell id="QdKFPZdmgNNmxC_U_GcA-0" value="" style="group" vertex="1" connectable="0" parent="iW9iBrreQVlwl3mV8Ol9-1">
          <mxGeometry x="130" y="80" width="200" height="260" as="geometry" />
        </mxCell>
        <mxCell id="QdKFPZdmgNNmxC_U_GcA-1" value="" style="group" vertex="1" connectable="0" parent="QdKFPZdmgNNmxC_U_GcA-0">
          <mxGeometry width="200" height="260" as="geometry" />
        </mxCell>
        <mxCell id="QdKFPZdmgNNmxC_U_GcA-2" value="" style="group" vertex="1" connectable="0" parent="QdKFPZdmgNNmxC_U_GcA-1">
          <mxGeometry y="20" width="200" height="240" as="geometry" />
        </mxCell>
        <mxCell id="QdKFPZdmgNNmxC_U_GcA-3" value="" style="rounded=0;whiteSpace=wrap;html=1;" vertex="1" parent="QdKFPZdmgNNmxC_U_GcA-2">
          <mxGeometry width="200" height="240" as="geometry" />
        </mxCell>
        <mxCell id="QdKFPZdmgNNmxC_U_GcA-4" value="" style="rounded=0;whiteSpace=wrap;html=1;" vertex="1" parent="QdKFPZdmgNNmxC_U_GcA-2">
          <mxGeometry width="200" height="20" as="geometry" />
        </mxCell>
        <mxCell id="QdKFPZdmgNNmxC_U_GcA-5" value="" style="rounded=0;whiteSpace=wrap;html=1;fillColor=#CCCCCC;strokeColor=#CCCCCC;" vertex="1" parent="QdKFPZdmgNNmxC_U_GcA-2">
          <mxGeometry x="10" y="7" width="10" height="6" as="geometry" />
        </mxCell>
        <mxCell id="QdKFPZdmgNNmxC_U_GcA-6" value="" style="rounded=0;whiteSpace=wrap;html=1;fillColor=#CCCCCC;strokeColor=#CCCCCC;" vertex="1" parent="QdKFPZdmgNNmxC_U_GcA-2">
          <mxGeometry x="170" y="7" width="20" height="6" as="geometry" />
        </mxCell>
        <mxCell id="QdKFPZdmgNNmxC_U_GcA-7" value="" style="rounded=0;whiteSpace=wrap;html=1;fillColor=#CCCCCC;strokeColor=#CCCCCC;" vertex="1" parent="QdKFPZdmgNNmxC_U_GcA-2">
          <mxGeometry x="25" y="7" width="15" height="6" as="geometry" />
        </mxCell>
        <mxCell id="QdKFPZdmgNNmxC_U_GcA-8" value="" style="rounded=0;whiteSpace=wrap;html=1;" vertex="1" parent="QdKFPZdmgNNmxC_U_GcA-2">
          <mxGeometry x="45" y="50" width="110" height="80" as="geometry" />
        </mxCell>
        <mxCell id="QdKFPZdmgNNmxC_U_GcA-10" value="/auth/signin" style="text;html=1;strokeColor=none;fillColor=none;align=left;verticalAlign=middle;whiteSpace=wrap;rounded=0;fontSize=12;" vertex="1" parent="QdKFPZdmgNNmxC_U_GcA-1">
          <mxGeometry width="200" height="20" as="geometry" />
        </mxCell>
        <mxCell id="QdKFPZdmgNNmxC_U_GcA-11" value="email" style="rounded=0;whiteSpace=wrap;html=1;fontSize=9;align=left;spacingLeft=2;" vertex="1" parent="QdKFPZdmgNNmxC_U_GcA-1">
          <mxGeometry x="55" y="90" width="91" height="10" as="geometry" />
        </mxCell>
        <mxCell id="QdKFPZdmgNNmxC_U_GcA-12" value="password" style="rounded=0;whiteSpace=wrap;html=1;fontSize=9;align=left;spacingLeft=2;" vertex="1" parent="QdKFPZdmgNNmxC_U_GcA-1">
          <mxGeometry x="55" y="110" width="91" height="10" as="geometry" />
        </mxCell>
        <mxCell id="QdKFPZdmgNNmxC_U_GcA-13" value="ok" style="rounded=0;whiteSpace=wrap;html=1;fontSize=9;spacing=0;" vertex="1" parent="QdKFPZdmgNNmxC_U_GcA-1">
          <mxGeometry x="85" y="130" width="31" height="10" as="geometry" />
        </mxCell>
        <mxCell id="nIk0akQCBOUEY01yaHbT-0" value="" style="group" vertex="1" connectable="0" parent="iW9iBrreQVlwl3mV8Ol9-1">
          <mxGeometry x="440" y="80" width="200" height="260" as="geometry" />
        </mxCell>
        <mxCell id="nIk0akQCBOUEY01yaHbT-1" value="" style="group" vertex="1" connectable="0" parent="nIk0akQCBOUEY01yaHbT-0">
          <mxGeometry width="200" height="260" as="geometry" />
        </mxCell>
        <mxCell id="nIk0akQCBOUEY01yaHbT-2" value="" style="group" vertex="1" connectable="0" parent="nIk0akQCBOUEY01yaHbT-1">
          <mxGeometry y="20" width="200" height="240" as="geometry" />
        </mxCell>
        <mxCell id="nIk0akQCBOUEY01yaHbT-3" value="" style="rounded=0;whiteSpace=wrap;html=1;" vertex="1" parent="nIk0akQCBOUEY01yaHbT-2">
          <mxGeometry width="200" height="240" as="geometry" />
        </mxCell>
        <mxCell id="nIk0akQCBOUEY01yaHbT-4" value="" style="rounded=0;whiteSpace=wrap;html=1;" vertex="1" parent="nIk0akQCBOUEY01yaHbT-2">
          <mxGeometry width="200" height="20" as="geometry" />
        </mxCell>
        <mxCell id="nIk0akQCBOUEY01yaHbT-5" value="" style="rounded=0;whiteSpace=wrap;html=1;fillColor=#CCCCCC;strokeColor=#CCCCCC;" vertex="1" parent="nIk0akQCBOUEY01yaHbT-2">
          <mxGeometry x="10" y="7" width="10" height="6" as="geometry" />
        </mxCell>
        <mxCell id="nIk0akQCBOUEY01yaHbT-6" value="" style="rounded=0;whiteSpace=wrap;html=1;fillColor=#CCCCCC;strokeColor=#CCCCCC;" vertex="1" parent="nIk0akQCBOUEY01yaHbT-2">
          <mxGeometry x="170" y="7" width="20" height="6" as="geometry" />
        </mxCell>
        <mxCell id="nIk0akQCBOUEY01yaHbT-7" value="" style="rounded=0;whiteSpace=wrap;html=1;fillColor=#CCCCCC;strokeColor=#CCCCCC;" vertex="1" parent="nIk0akQCBOUEY01yaHbT-2">
          <mxGeometry x="25" y="7" width="15" height="6" as="geometry" />
        </mxCell>
        <mxCell id="nIk0akQCBOUEY01yaHbT-8" value="" style="rounded=0;whiteSpace=wrap;html=1;" vertex="1" parent="nIk0akQCBOUEY01yaHbT-2">
          <mxGeometry x="45" y="50" width="110" height="60" as="geometry" />
        </mxCell>
        <mxCell id="nIk0akQCBOUEY01yaHbT-9" value="/auth/account" style="text;html=1;strokeColor=none;fillColor=none;align=left;verticalAlign=middle;whiteSpace=wrap;rounded=0;fontSize=12;" vertex="1" parent="nIk0akQCBOUEY01yaHbT-1">
          <mxGeometry width="200" height="20" as="geometry" />
        </mxCell>
        <mxCell id="nIk0akQCBOUEY01yaHbT-10" value="Merchant A" style="rounded=0;whiteSpace=wrap;html=1;fontSize=9;align=left;spacingLeft=2;" vertex="1" parent="nIk0akQCBOUEY01yaHbT-1">
          <mxGeometry x="55" y="80" width="91" height="20" as="geometry" />
        </mxCell>
        <mxCell id="nIk0akQCBOUEY01yaHbT-11" value="Merchant B" style="rounded=0;whiteSpace=wrap;html=1;fontSize=9;align=left;spacingLeft=2;" vertex="1" parent="nIk0akQCBOUEY01yaHbT-1">
          <mxGeometry x="55" y="100" width="91" height="20" as="geometry" />
        </mxCell>
        <mxCell id="nIk0akQCBOUEY01yaHbT-13" style="edgeStyle=orthogonalEdgeStyle;rounded=0;orthogonalLoop=1;jettySize=auto;html=1;" edge="1" parent="iW9iBrreQVlwl3mV8Ol9-1" source="QdKFPZdmgNNmxC_U_GcA-3" target="nIk0akQCBOUEY01yaHbT-3">
          <mxGeometry relative="1" as="geometry" />
        </mxCell>
        <mxCell id="nIk0akQCBOUEY01yaHbT-14" value="" style="group" vertex="1" connectable="0" parent="iW9iBrreQVlwl3mV8Ol9-1">
          <mxGeometry x="440.5" y="420" width="200" height="260" as="geometry" />
        </mxCell>
        <mxCell id="nIk0akQCBOUEY01yaHbT-15" value="" style="group" vertex="1" connectable="0" parent="nIk0akQCBOUEY01yaHbT-14">
          <mxGeometry width="200" height="260" as="geometry" />
        </mxCell>
        <mxCell id="nIk0akQCBOUEY01yaHbT-16" value="" style="group" vertex="1" connectable="0" parent="nIk0akQCBOUEY01yaHbT-15">
          <mxGeometry y="20" width="200" height="240" as="geometry" />
        </mxCell>
        <mxCell id="nIk0akQCBOUEY01yaHbT-17" value="" style="rounded=0;whiteSpace=wrap;html=1;" vertex="1" parent="nIk0akQCBOUEY01yaHbT-16">
          <mxGeometry width="200" height="240" as="geometry" />
        </mxCell>
        <mxCell id="nIk0akQCBOUEY01yaHbT-18" value="" style="rounded=0;whiteSpace=wrap;html=1;" vertex="1" parent="nIk0akQCBOUEY01yaHbT-16">
          <mxGeometry width="200" height="20" as="geometry" />
        </mxCell>
        <mxCell id="nIk0akQCBOUEY01yaHbT-19" value="" style="rounded=0;whiteSpace=wrap;html=1;fillColor=#CCCCCC;strokeColor=#CCCCCC;" vertex="1" parent="nIk0akQCBOUEY01yaHbT-16">
          <mxGeometry x="10" y="7" width="10" height="6" as="geometry" />
        </mxCell>
        <mxCell id="nIk0akQCBOUEY01yaHbT-20" value="" style="rounded=0;whiteSpace=wrap;html=1;fillColor=#CCCCCC;strokeColor=#CCCCCC;" vertex="1" parent="nIk0akQCBOUEY01yaHbT-16">
          <mxGeometry x="170" y="7" width="20" height="6" as="geometry" />
        </mxCell>
        <mxCell id="nIk0akQCBOUEY01yaHbT-21" value="" style="rounded=0;whiteSpace=wrap;html=1;fillColor=#CCCCCC;strokeColor=#CCCCCC;" vertex="1" parent="nIk0akQCBOUEY01yaHbT-16">
          <mxGeometry x="25" y="7" width="15" height="6" as="geometry" />
        </mxCell>
        <mxCell id="nIk0akQCBOUEY01yaHbT-22" value="" style="rounded=0;whiteSpace=wrap;html=1;" vertex="1" parent="nIk0akQCBOUEY01yaHbT-16">
          <mxGeometry x="45" y="50" width="110" height="80" as="geometry" />
        </mxCell>
        <mxCell id="nIk0akQCBOUEY01yaHbT-23" value="/forget-password" style="text;html=1;strokeColor=none;fillColor=none;align=left;verticalAlign=middle;whiteSpace=wrap;rounded=0;fontSize=12;" vertex="1" parent="nIk0akQCBOUEY01yaHbT-15">
          <mxGeometry width="200" height="20" as="geometry" />
        </mxCell>
        <mxCell id="nIk0akQCBOUEY01yaHbT-26" value="ok" style="rounded=0;whiteSpace=wrap;html=1;fontSize=9;spacing=0;" vertex="1" parent="nIk0akQCBOUEY01yaHbT-15">
          <mxGeometry x="85" y="130" width="31" height="10" as="geometry" />
        </mxCell>
        <mxCell id="nIk0akQCBOUEY01yaHbT-27" style="edgeStyle=orthogonalEdgeStyle;rounded=0;orthogonalLoop=1;jettySize=auto;html=1;entryX=0;entryY=0.5;entryDx=0;entryDy=0;" edge="1" parent="iW9iBrreQVlwl3mV8Ol9-1" source="QdKFPZdmgNNmxC_U_GcA-3" target="nIk0akQCBOUEY01yaHbT-17">
          <mxGeometry relative="1" as="geometry" />
        </mxCell>
        <mxCell id="nIk0akQCBOUEY01yaHbT-30" value="1. Откуда пользователи будут приходить&lt;br&gt;на страницу восстановления пароля?" style="text;html=1;strokeColor=none;fillColor=none;align=left;verticalAlign=middle;whiteSpace=wrap;rounded=0;autosize=0;" vertex="1" parent="iW9iBrreQVlwl3mV8Ol9-1">
          <mxGeometry x="105" y="460" width="250" height="35" as="geometry" />
        </mxCell>
        <mxCell id="nIk0akQCBOUEY01yaHbT-31" value="2. Что будет на странице восстановления пароля?" style="text;html=1;strokeColor=none;fillColor=none;align=left;verticalAlign=middle;whiteSpace=wrap;rounded=0;autosize=0;" vertex="1" parent="iW9iBrreQVlwl3mV8Ol9-1">
          <mxGeometry x="105" y="520" width="250" height="35" as="geometry" />
        </mxCell>
        <mxCell id="nIk0akQCBOUEY01yaHbT-57" value="" style="group" vertex="1" connectable="0" parent="iW9iBrreQVlwl3mV8Ol9-1">
          <mxGeometry x="750" y="85" width="200" height="260" as="geometry" />
        </mxCell>
        <mxCell id="nIk0akQCBOUEY01yaHbT-32" value="" style="group" vertex="1" connectable="0" parent="nIk0akQCBOUEY01yaHbT-57">
          <mxGeometry width="200" height="260" as="geometry" />
        </mxCell>
        <mxCell id="nIk0akQCBOUEY01yaHbT-33" value="" style="group" vertex="1" connectable="0" parent="nIk0akQCBOUEY01yaHbT-32">
          <mxGeometry width="200" height="260" as="geometry" />
        </mxCell>
        <mxCell id="nIk0akQCBOUEY01yaHbT-34" value="" style="group" vertex="1" connectable="0" parent="nIk0akQCBOUEY01yaHbT-33">
          <mxGeometry y="20" width="200" height="240" as="geometry" />
        </mxCell>
        <mxCell id="nIk0akQCBOUEY01yaHbT-35" value="" style="rounded=0;whiteSpace=wrap;html=1;" vertex="1" parent="nIk0akQCBOUEY01yaHbT-34">
          <mxGeometry width="200" height="240" as="geometry" />
        </mxCell>
        <mxCell id="nIk0akQCBOUEY01yaHbT-36" value="" style="rounded=0;whiteSpace=wrap;html=1;" vertex="1" parent="nIk0akQCBOUEY01yaHbT-34">
          <mxGeometry width="200" height="20" as="geometry" />
        </mxCell>
        <mxCell id="nIk0akQCBOUEY01yaHbT-37" value="" style="rounded=0;whiteSpace=wrap;html=1;fillColor=#CCCCCC;strokeColor=#CCCCCC;" vertex="1" parent="nIk0akQCBOUEY01yaHbT-34">
          <mxGeometry x="10" y="7" width="10" height="6" as="geometry" />
        </mxCell>
        <mxCell id="nIk0akQCBOUEY01yaHbT-38" value="" style="rounded=0;whiteSpace=wrap;html=1;fillColor=#CCCCCC;strokeColor=#CCCCCC;" vertex="1" parent="nIk0akQCBOUEY01yaHbT-34">
          <mxGeometry x="170" y="7" width="20" height="6" as="geometry" />
        </mxCell>
        <mxCell id="nIk0akQCBOUEY01yaHbT-39" value="" style="rounded=0;whiteSpace=wrap;html=1;fillColor=#CCCCCC;strokeColor=#CCCCCC;" vertex="1" parent="nIk0akQCBOUEY01yaHbT-34">
          <mxGeometry x="25" y="7" width="15" height="6" as="geometry" />
        </mxCell>
        <mxCell id="nIk0akQCBOUEY01yaHbT-40" value="" style="rounded=0;whiteSpace=wrap;html=1;fillColor=#CCCCCC;" vertex="1" parent="nIk0akQCBOUEY01yaHbT-34">
          <mxGeometry y="20" width="40" height="220" as="geometry" />
        </mxCell>
        <mxCell id="nIk0akQCBOUEY01yaHbT-41" value="/panel" style="text;html=1;strokeColor=none;fillColor=none;align=left;verticalAlign=middle;whiteSpace=wrap;rounded=0;fontSize=12;" vertex="1" parent="nIk0akQCBOUEY01yaHbT-33">
          <mxGeometry width="200" height="20" as="geometry" />
        </mxCell>
        <mxCell id="nIk0akQCBOUEY01yaHbT-44" value="" style="rounded=0;whiteSpace=wrap;html=1;" vertex="1" parent="nIk0akQCBOUEY01yaHbT-57">
          <mxGeometry x="40" y="40" width="160" height="15" as="geometry" />
        </mxCell>
        <mxCell id="nIk0akQCBOUEY01yaHbT-55" value="" style="rounded=0;whiteSpace=wrap;html=1;fillColor=#CCCCCC;strokeColor=#CCCCCC;" vertex="1" parent="nIk0akQCBOUEY01yaHbT-57">
          <mxGeometry x="44" y="44" width="3" height="6" as="geometry" />
        </mxCell>
        <mxCell id="nIk0akQCBOUEY01yaHbT-56" value="" style="rounded=0;whiteSpace=wrap;html=1;fillColor=#CCCCCC;strokeColor=#CCCCCC;" vertex="1" parent="nIk0akQCBOUEY01yaHbT-57">
          <mxGeometry x="51" y="44" width="20" height="6" as="geometry" />
        </mxCell>
        <mxCell id="nIk0akQCBOUEY01yaHbT-58" style="edgeStyle=elbowEdgeStyle;rounded=0;orthogonalLoop=1;jettySize=auto;html=1;elbow=vertical;" edge="1" parent="iW9iBrreQVlwl3mV8Ol9-1" source="nIk0akQCBOUEY01yaHbT-3" target="nIk0akQCBOUEY01yaHbT-35">
          <mxGeometry relative="1" as="geometry" />
        </mxCell>
      </root>
    </mxGraphModel>
  </diagram>
  <diagram id="irFUqdOEMGV7W6PFk0p6" name="OAuth">
    <mxGraphModel dx="1186" dy="739" grid="1" gridSize="10" guides="1" tooltips="1" connect="1" arrows="1" fold="1" page="1" pageScale="1" pageWidth="827" pageHeight="1169" math="0" shadow="0">
      <root>
        <mxCell id="RH3Kg1vD80r5-Wmwhp9f-0" />
        <mxCell id="RH3Kg1vD80r5-Wmwhp9f-1" parent="RH3Kg1vD80r5-Wmwhp9f-0" />
        <mxCell id="vxBVnMDS_E_hDAVjg61Y-0" value="" style="group" vertex="1" connectable="0" parent="RH3Kg1vD80r5-Wmwhp9f-1">
          <mxGeometry x="130" y="80" width="200" height="260" as="geometry" />
        </mxCell>
        <mxCell id="vxBVnMDS_E_hDAVjg61Y-1" value="" style="group" vertex="1" connectable="0" parent="vxBVnMDS_E_hDAVjg61Y-0">
          <mxGeometry width="200" height="260" as="geometry" />
        </mxCell>
        <mxCell id="vxBVnMDS_E_hDAVjg61Y-2" value="" style="group" vertex="1" connectable="0" parent="vxBVnMDS_E_hDAVjg61Y-1">
          <mxGeometry y="20" width="200" height="240" as="geometry" />
        </mxCell>
        <mxCell id="vxBVnMDS_E_hDAVjg61Y-3" value="" style="rounded=0;whiteSpace=wrap;html=1;" vertex="1" parent="vxBVnMDS_E_hDAVjg61Y-2">
          <mxGeometry width="200" height="240" as="geometry" />
        </mxCell>
        <mxCell id="vxBVnMDS_E_hDAVjg61Y-4" value="" style="rounded=0;whiteSpace=wrap;html=1;" vertex="1" parent="vxBVnMDS_E_hDAVjg61Y-2">
          <mxGeometry width="200" height="20" as="geometry" />
        </mxCell>
        <mxCell id="vxBVnMDS_E_hDAVjg61Y-5" value="" style="rounded=0;whiteSpace=wrap;html=1;fillColor=#CCCCCC;strokeColor=#CCCCCC;" vertex="1" parent="vxBVnMDS_E_hDAVjg61Y-2">
          <mxGeometry x="10" y="7" width="10" height="6" as="geometry" />
        </mxCell>
        <mxCell id="vxBVnMDS_E_hDAVjg61Y-6" value="" style="rounded=0;whiteSpace=wrap;html=1;fillColor=#CCCCCC;strokeColor=#CCCCCC;" vertex="1" parent="vxBVnMDS_E_hDAVjg61Y-2">
          <mxGeometry x="170" y="7" width="20" height="6" as="geometry" />
        </mxCell>
        <mxCell id="vxBVnMDS_E_hDAVjg61Y-7" value="" style="rounded=0;whiteSpace=wrap;html=1;fillColor=#CCCCCC;strokeColor=#CCCCCC;" vertex="1" parent="vxBVnMDS_E_hDAVjg61Y-2">
          <mxGeometry x="25" y="7" width="15" height="6" as="geometry" />
        </mxCell>
        <mxCell id="vxBVnMDS_E_hDAVjg61Y-8" value="" style="rounded=0;whiteSpace=wrap;html=1;" vertex="1" parent="vxBVnMDS_E_hDAVjg61Y-2">
          <mxGeometry x="45" y="50" width="110" height="120" as="geometry" />
        </mxCell>
        <mxCell id="vxBVnMDS_E_hDAVjg61Y-9" value="I hereby confirm…" style="text;html=1;strokeColor=none;fillColor=none;align=left;verticalAlign=middle;whiteSpace=wrap;rounded=0;fontSize=9;" vertex="1" parent="vxBVnMDS_E_hDAVjg61Y-2">
          <mxGeometry x="62" y="128" width="78" height="10" as="geometry" />
        </mxCell>
        <mxCell id="vxBVnMDS_E_hDAVjg61Y-10" value="/oauth/authorize" style="text;html=1;strokeColor=none;fillColor=none;align=left;verticalAlign=middle;whiteSpace=wrap;rounded=0;fontSize=12;" vertex="1" parent="vxBVnMDS_E_hDAVjg61Y-1">
          <mxGeometry width="200" height="20" as="geometry" />
        </mxCell>
        <mxCell id="vxBVnMDS_E_hDAVjg61Y-11" value="password" style="rounded=0;whiteSpace=wrap;html=1;fontSize=9;align=left;spacingLeft=2;" vertex="1" parent="vxBVnMDS_E_hDAVjg61Y-1">
          <mxGeometry x="55" y="90" width="91" height="10" as="geometry" />
        </mxCell>
        <mxCell id="vxBVnMDS_E_hDAVjg61Y-12" value="confirm password" style="rounded=0;whiteSpace=wrap;html=1;fontSize=9;align=left;spacingLeft=2;" vertex="1" parent="vxBVnMDS_E_hDAVjg61Y-1">
          <mxGeometry x="55" y="110" width="91" height="10" as="geometry" />
        </mxCell>
        <mxCell id="vxBVnMDS_E_hDAVjg61Y-13" value="ok" style="rounded=0;whiteSpace=wrap;html=1;fontSize=9;spacing=0;" vertex="1" parent="vxBVnMDS_E_hDAVjg61Y-1">
          <mxGeometry x="85" y="170" width="31" height="10" as="geometry" />
        </mxCell>
        <mxCell id="vxBVnMDS_E_hDAVjg61Y-14" value="merchant name" style="rounded=0;whiteSpace=wrap;html=1;fontSize=9;align=left;spacingLeft=2;" vertex="1" parent="vxBVnMDS_E_hDAVjg61Y-0">
          <mxGeometry x="55" y="130" width="91" height="10" as="geometry" />
        </mxCell>
        <mxCell id="vxBVnMDS_E_hDAVjg61Y-15" value="" style="rounded=0;whiteSpace=wrap;html=1;fontSize=9;spacing=0;" vertex="1" parent="vxBVnMDS_E_hDAVjg61Y-0">
          <mxGeometry x="55" y="150" width="5" height="5" as="geometry" />
        </mxCell>
        <mxCell id="vxBVnMDS_E_hDAVjg61Y-16" value="" style="group" vertex="1" connectable="0" parent="RH3Kg1vD80r5-Wmwhp9f-1">
          <mxGeometry x="130" y="410" width="200" height="260" as="geometry" />
        </mxCell>
        <mxCell id="vxBVnMDS_E_hDAVjg61Y-17" value="" style="group" vertex="1" connectable="0" parent="vxBVnMDS_E_hDAVjg61Y-16">
          <mxGeometry width="200" height="260" as="geometry" />
        </mxCell>
        <mxCell id="vxBVnMDS_E_hDAVjg61Y-18" value="" style="group" vertex="1" connectable="0" parent="vxBVnMDS_E_hDAVjg61Y-17">
          <mxGeometry y="20" width="200" height="240" as="geometry" />
        </mxCell>
        <mxCell id="vxBVnMDS_E_hDAVjg61Y-19" value="" style="rounded=0;whiteSpace=wrap;html=1;" vertex="1" parent="vxBVnMDS_E_hDAVjg61Y-18">
          <mxGeometry width="200" height="240" as="geometry" />
        </mxCell>
        <mxCell id="vxBVnMDS_E_hDAVjg61Y-20" value="" style="rounded=0;whiteSpace=wrap;html=1;" vertex="1" parent="vxBVnMDS_E_hDAVjg61Y-18">
          <mxGeometry width="200" height="20" as="geometry" />
        </mxCell>
        <mxCell id="vxBVnMDS_E_hDAVjg61Y-21" value="" style="rounded=0;whiteSpace=wrap;html=1;fillColor=#CCCCCC;strokeColor=#CCCCCC;" vertex="1" parent="vxBVnMDS_E_hDAVjg61Y-18">
          <mxGeometry x="10" y="7" width="10" height="6" as="geometry" />
        </mxCell>
        <mxCell id="vxBVnMDS_E_hDAVjg61Y-22" value="" style="rounded=0;whiteSpace=wrap;html=1;fillColor=#CCCCCC;strokeColor=#CCCCCC;" vertex="1" parent="vxBVnMDS_E_hDAVjg61Y-18">
          <mxGeometry x="170" y="7" width="20" height="6" as="geometry" />
        </mxCell>
        <mxCell id="vxBVnMDS_E_hDAVjg61Y-23" value="" style="rounded=0;whiteSpace=wrap;html=1;fillColor=#CCCCCC;strokeColor=#CCCCCC;" vertex="1" parent="vxBVnMDS_E_hDAVjg61Y-18">
          <mxGeometry x="25" y="7" width="15" height="6" as="geometry" />
        </mxCell>
        <mxCell id="vxBVnMDS_E_hDAVjg61Y-24" value="" style="rounded=0;whiteSpace=wrap;html=1;" vertex="1" parent="vxBVnMDS_E_hDAVjg61Y-18">
          <mxGeometry x="45" y="50" width="110" height="120" as="geometry" />
        </mxCell>
        <mxCell id="vxBVnMDS_E_hDAVjg61Y-25" value="I hereby confirm…" style="text;html=1;strokeColor=none;fillColor=none;align=left;verticalAlign=middle;whiteSpace=wrap;rounded=0;fontSize=9;" vertex="1" parent="vxBVnMDS_E_hDAVjg61Y-18">
          <mxGeometry x="62" y="128" width="78" height="10" as="geometry" />
        </mxCell>
        <mxCell id="vxBVnMDS_E_hDAVjg61Y-26" value="/oauth/login" style="text;html=1;strokeColor=none;fillColor=none;align=left;verticalAlign=middle;whiteSpace=wrap;rounded=0;fontSize=12;" vertex="1" parent="vxBVnMDS_E_hDAVjg61Y-17">
          <mxGeometry width="200" height="20" as="geometry" />
        </mxCell>
        <mxCell id="vxBVnMDS_E_hDAVjg61Y-27" value="password" style="rounded=0;whiteSpace=wrap;html=1;fontSize=9;align=left;spacingLeft=2;" vertex="1" parent="vxBVnMDS_E_hDAVjg61Y-17">
          <mxGeometry x="55" y="90" width="91" height="10" as="geometry" />
        </mxCell>
        <mxCell id="vxBVnMDS_E_hDAVjg61Y-28" value="confirm password" style="rounded=0;whiteSpace=wrap;html=1;fontSize=9;align=left;spacingLeft=2;" vertex="1" parent="vxBVnMDS_E_hDAVjg61Y-17">
          <mxGeometry x="55" y="110" width="91" height="10" as="geometry" />
        </mxCell>
        <mxCell id="vxBVnMDS_E_hDAVjg61Y-29" value="ok" style="rounded=0;whiteSpace=wrap;html=1;fontSize=9;spacing=0;" vertex="1" parent="vxBVnMDS_E_hDAVjg61Y-17">
          <mxGeometry x="85" y="170" width="31" height="10" as="geometry" />
        </mxCell>
        <mxCell id="vxBVnMDS_E_hDAVjg61Y-30" value="merchant name" style="rounded=0;whiteSpace=wrap;html=1;fontSize=9;align=left;spacingLeft=2;" vertex="1" parent="vxBVnMDS_E_hDAVjg61Y-16">
          <mxGeometry x="55" y="130" width="91" height="10" as="geometry" />
        </mxCell>
        <mxCell id="vxBVnMDS_E_hDAVjg61Y-31" value="" style="rounded=0;whiteSpace=wrap;html=1;fontSize=9;spacing=0;" vertex="1" parent="vxBVnMDS_E_hDAVjg61Y-16">
          <mxGeometry x="55" y="150" width="5" height="5" as="geometry" />
        </mxCell>
      </root>
    </mxGraphModel>
  </diagram>
  <diagram id="CudhAUHVTHW1x656BSIH" name="Вопросы">
    <mxGraphModel dx="1186" dy="739" grid="1" gridSize="10" guides="1" tooltips="1" connect="1" arrows="1" fold="1" page="1" pageScale="1" pageWidth="827" pageHeight="1169" math="0" shadow="0">
      <root>
        <mxCell id="cF0Pdz3eny8AtVdTh-L9-0" />
        <mxCell id="cF0Pdz3eny8AtVdTh-L9-1" parent="cF0Pdz3eny8AtVdTh-L9-0" />
        <mxCell id="cF0Pdz3eny8AtVdTh-L9-2" value="Что представляет из себя лендинг" style="text;html=1;strokeColor=none;fillColor=none;align=center;verticalAlign=middle;whiteSpace=wrap;rounded=0;" vertex="1" parent="cF0Pdz3eny8AtVdTh-L9-1">
          <mxGeometry x="380" y="360" width="250" height="30" as="geometry" />
        </mxCell>
        <mxCell id="cF0Pdz3eny8AtVdTh-L9-3" value="Куда будут попадать мерчанты которым пришло требование перейти на аккаунты?" style="text;html=1;strokeColor=none;fillColor=none;align=center;verticalAlign=middle;whiteSpace=wrap;rounded=0;" vertex="1" parent="cF0Pdz3eny8AtVdTh-L9-1">
          <mxGeometry x="390" y="390" width="250" height="30" as="geometry" />
        </mxCell>
        <mxCell id="cF0Pdz3eny8AtVdTh-L9-4" value="Как в интерфейсе будет выглядеть переключение на аккаунты" style="text;html=1;strokeColor=none;fillColor=none;align=center;verticalAlign=middle;whiteSpace=wrap;rounded=0;" vertex="1" parent="cF0Pdz3eny8AtVdTh-L9-1">
          <mxGeometry x="390" y="430" width="250" height="30" as="geometry" />
        </mxCell>
        <mxCell id="cF0Pdz3eny8AtVdTh-L9-5" value="Какие письма будет слать сервер" style="text;html=1;strokeColor=none;fillColor=none;align=center;verticalAlign=middle;whiteSpace=wrap;rounded=0;" vertex="1" parent="cF0Pdz3eny8AtVdTh-L9-1">
          <mxGeometry x="390" y="470" width="250" height="30" as="geometry" />
        </mxCell>
        <mxCell id="V9z7XY3ui1E_lAbfw1OA-0" value="Под восстановление и установку есть отдельные страницы" style="text;html=1;strokeColor=none;fillColor=none;align=center;verticalAlign=middle;whiteSpace=wrap;rounded=0;" vertex="1" parent="cF0Pdz3eny8AtVdTh-L9-1">
          <mxGeometry x="390" y="500" width="250" height="30" as="geometry" />
        </mxCell>
      </root>
    </mxGraphModel>
  </diagram>
</mxfile>
